<?xml version="1.0" encoding="UTF-8" standalone="no"?><!DOCTYPE svg PUBLIC "-//W3C//DTD SVG 1.1//EN" "http://www.w3.org/Graphics/SVG/1.1/DTD/svg11.dtd"><svg width="100%" height="100%" viewBox="0 0 220 310" version="1.1" xmlns="http://www.w3.org/2000/svg" xmlns:xlink="http://www.w3.org/1999/xlink" xml:space="preserve" xmlns:serif="http://www.serif.com/" style="fill-rule:evenodd;clip-rule:evenodd;stroke-linecap:round;stroke-linejoin:round;"><rect id="IKONA-kniha-cast" x="0" y="0" width="220" height="310" style="fill:none;"/><clipPath id="_clip1"><rect x="0" y="0" width="220" height="310"/></clipPath><g clip-path="url(#_clip1)"><rect id="_220x310px" serif:id="220x310px" x="0" y="0" width="220" height="310" style="fill:none;"/><rect x="10" y="25" width="200" height="200" style="fill:none;"/><path d="M147,49l-0,40l-14,-16l-16,16l-0,-40" style="fill:none;fill-rule:nonzero;stroke:#eae1d1;stroke-width:6px;"/><path d="M47.5,193.75c-0,-0.026 -0,-0.052 -0,-0.078c-0,-10.243 8.429,-18.672 18.672,-18.672c0.026,-0 0.052,-0 0.078,0l106.25,0l0,-125l-106.25,0c-0.026,-0 -0.052,-0 -0.078,-0c-10.243,-0 -18.672,8.429 -18.672,18.672c-0,0.026 -0,0.052 0,0.078l0,125Z" style="fill:none;fill-rule:nonzero;stroke:#eae1d1;stroke-width:10px;"/><path d="M47.5,193.75l0,6.25l112.5,0" style="fill:none;fill-rule:nonzero;stroke:#eae1d1;stroke-width:10px;"/></g></svg>