<?xml version="1.0" encoding="UTF-8" standalone="no"?><!DOCTYPE svg PUBLIC "-//W3C//DTD SVG 1.1//EN" "http://www.w3.org/Graphics/SVG/1.1/DTD/svg11.dtd"><svg width="100%" height="100%" viewBox="0 0 221 310" version="1.1" xmlns="http://www.w3.org/2000/svg" xmlns:xlink="http://www.w3.org/1999/xlink" xml:space="preserve" xmlns:serif="http://www.serif.com/" style="fill-rule:evenodd;clip-rule:evenodd;stroke-linecap:round;stroke-linejoin:round;"><rect id="IKONA-audio" x="0.018" y="0" width="220" height="310" style="fill:none;"/><clipPath id="_clip1"><rect x="0.018" y="0" width="220" height="310"/></clipPath><g clip-path="url(#_clip1)"><rect id="_220x310px" serif:id="220x310px" x="0.018" y="0" width="220" height="310" style="fill:none;"/><rect x="10.018" y="25" width="200" height="200" style="fill:none;"/><path d="M181.034,85.234c10.558,10.534 16.499,24.851 16.499,39.766c-0,14.915 -5.941,29.232 -16.499,39.766" style="fill:none;fill-rule:nonzero;stroke:#eae1d1;stroke-width:6px;"/><path d="M72.518,156.25l-37.5,0c-3.428,0 -6.25,-2.821 -6.25,-6.25l0,-50c0,-3.429 2.822,-6.25 6.25,-6.25l37.5,0l56.25,-43.75l0,150l-56.25,-43.75Z" style="fill:none;fill-rule:nonzero;stroke:#eae1d1;stroke-width:10px;"/><path d="M72.518,93.75l0,62.5" style="fill:none;fill-rule:nonzero;stroke:#eae1d1;stroke-width:10px;"/><path d="M158.925,107.344c4.692,4.674 7.333,11.032 7.333,17.656c-0,6.624 -2.641,12.982 -7.333,17.656" style="fill:none;fill-rule:nonzero;stroke:#eae1d1;stroke-width:6px;"/></g></svg>