<?xml version="1.0" encoding="UTF-8" standalone="no"?><!DOCTYPE svg PUBLIC "-//W3C//DTD SVG 1.1//EN" "http://www.w3.org/Graphics/SVG/1.1/DTD/svg11.dtd"><svg width="100%" height="100%" viewBox="0 0 221 310" version="1.1" xmlns="http://www.w3.org/2000/svg" xmlns:xlink="http://www.w3.org/1999/xlink" xml:space="preserve" xmlns:serif="http://www.serif.com/" style="fill-rule:evenodd;clip-rule:evenodd;stroke-linecap:round;stroke-miterlimit:1.5;"><rect id="IKONA-retrobi" x="0.033" y="0" width="220" height="310" style="fill:none;"/><clipPath id="_clip1"><rect x="0.033" y="0" width="220" height="310"/></clipPath><g clip-path="url(#_clip1)"><rect id="_220x310px" serif:id="220x310px" x="0.033" y="0" width="220" height="310" style="fill:none;"/><path d="M44.178,91l71.71,0" style="fill:none;stroke:#eae1d1;stroke-width:10px;"/><path d="M43.033,156l122,-0" style="fill:none;stroke:#eae1d1;stroke-width:6px;"/><path d="M43.033,168l136,0" style="fill:none;stroke:#eae1d1;stroke-width:6px;"/><path d="M43.033,180l94.05,0" style="fill:none;stroke:#eae1d1;stroke-width:6px;"/><path d="M205.033,66c0,-5.519 -4.481,-10 -10,-10l-170,0c-5.519,0 -10,4.481 -10,10l0,132c0,5.519 4.481,10 10,10l170,0c5.519,0 10,-4.481 10,-10l0,-132Zm-10,-0c0,0 0,132 0,132c0,0 -170,0 -170,0c0,-0 0,-132 0,-132l170,-0Z" style="fill:#eae1d1;"/></g></svg>