<?xml version="1.0" encoding="UTF-8" standalone="no"?><!DOCTYPE svg PUBLIC "-//W3C//DTD SVG 1.1//EN" "http://www.w3.org/Graphics/SVG/1.1/DTD/svg11.dtd"><svg width="100%" height="100%" viewBox="0 0 220 310" version="1.1" xmlns="http://www.w3.org/2000/svg" xmlns:xlink="http://www.w3.org/1999/xlink" xml:space="preserve" xmlns:serif="http://www.serif.com/" style="fill-rule:evenodd;clip-rule:evenodd;stroke-linecap:round;stroke-linejoin:round;"><rect id="IKONA-casopis" x="0" y="0" width="220" height="310" style="fill:none;"/><clipPath id="_clip1"><rect x="0" y="0" width="220" height="310"/></clipPath><g clip-path="url(#_clip1)"><rect id="_220x310px" serif:id="220x310px" x="0" y="-0" width="220" height="310" style="fill:none;"/><rect x="10" y="24.979" width="200" height="200" style="fill:none;"/><path d="M110,93.729c0,-13.715 11.285,-25 25,-25l50,-0c3.429,-0 6.25,2.821 6.25,6.25l0,100c0,3.429 -2.821,6.25 -6.25,6.25l-50,-0c-13.715,-0 -25,11.285 -25,25" style="fill:none;fill-rule:nonzero;stroke:#eae1d1;stroke-width:10px;"/><path d="M28.75,174.979c0,3.429 2.821,6.25 6.25,6.25l50,-0c13.715,-0 25,11.285 25,25l0,-112.5c0,-13.715 -11.285,-25 -25,-25l-50,-0c-3.429,-0 -6.25,2.821 -6.25,6.25l0,100Z" style="fill:none;fill-rule:nonzero;stroke:#eae1d1;stroke-width:10px;"/></g></svg>