<?xml version="1.0" encoding="UTF-8" standalone="no"?><!DOCTYPE svg PUBLIC "-//W3C//DTD SVG 1.1//EN" "http://www.w3.org/Graphics/SVG/1.1/DTD/svg11.dtd"><svg width="100%" height="100%" viewBox="0 0 220 310" version="1.1" xmlns="http://www.w3.org/2000/svg" xmlns:xlink="http://www.w3.org/1999/xlink" xml:space="preserve" xmlns:serif="http://www.serif.com/" style="fill-rule:evenodd;clip-rule:evenodd;stroke-linecap:round;stroke-linejoin:round;"><rect id="IKONA-clanek" x="0" y="0" width="220" height="310" style="fill:none;"/><clipPath id="_clip1"><rect x="0" y="0" width="220" height="310"/></clipPath><g clip-path="url(#_clip1)"><g><rect id="_220x310px" serif:id="220x310px" x="-0" y="0" width="220" height="310" style="fill:none;"/></g><rect x="10" y="24.55" width="200" height="200" style="fill:none;"/><path d="M35,194.3l-0,-125c-0,-3.428 2.821,-6.25 6.25,-6.25l137.5,0c3.429,0 6.25,2.822 6.25,6.25l-0,125l-25,-12.5l-25,12.5l-25,-12.5l-25,12.5l-25,-12.5l-25,12.5Z" style="fill:none;fill-rule:nonzero;stroke:#eae1d1;stroke-width:10px;"/><path d="M122.5,113.05l37.5,0" style="fill:none;fill-rule:nonzero;stroke:#eae1d1;stroke-width:6px;"/><path d="M122.5,138.05l37.5,0" style="fill:none;fill-rule:nonzero;stroke:#eae1d1;stroke-width:6px;"/><rect x="60" y="100.55" width="37.5" height="50" style="fill:none;stroke:#eae1d1;stroke-width:6px;"/></g></svg>