<?xml version="1.0" encoding="UTF-8" standalone="no"?><!DOCTYPE svg PUBLIC "-//W3C//DTD SVG 1.1//EN" "http://www.w3.org/Graphics/SVG/1.1/DTD/svg11.dtd"><svg width="100%" height="100%" viewBox="0 0 221 310" version="1.1" xmlns="http://www.w3.org/2000/svg" xmlns:xlink="http://www.w3.org/1999/xlink" xml:space="preserve" xmlns:serif="http://www.serif.com/" style="fill-rule:evenodd;clip-rule:evenodd;stroke-linecap:round;stroke-linejoin:round;"><rect id="IKONA-video" x="0.033" y="0" width="220" height="310" style="fill:none;"/><clipPath id="_clip1"><rect x="0.033" y="0" width="220" height="310"/></clipPath><g clip-path="url(#_clip1)"><rect id="_220x310px" serif:id="220x310px" x="0.033" y="0" width="220" height="310" style="fill:none;"/><rect x="10.018" y="25" width="200" height="200" style="fill:none;"/><path d="M135.018,125l-37.5,-25l0,50l37.5,-25Z" style="fill:none;fill-rule:nonzero;stroke:#eae1d1;stroke-width:6px;"/><path d="M28.768,125c0,23.281 2.422,36.875 4.219,43.906c1.004,3.866 3.792,7.032 7.5,8.516c26.172,10 69.531,9.766 69.531,9.766c0,-0 43.36,0.234 69.532,-9.766c3.708,-1.484 6.496,-4.65 7.5,-8.516c1.797,-7.031 4.218,-20.625 4.218,-43.906c0,-23.281 -2.421,-36.875 -4.218,-43.906c-1.004,-3.866 -3.792,-7.032 -7.5,-8.516c-26.172,-10 -69.532,-9.765 -69.532,-9.765c0,-0 -43.359,-0.235 -69.531,9.765c-3.708,1.484 -6.496,4.65 -7.5,8.516c-1.797,7.031 -4.219,20.625 -4.219,43.906Z" style="fill:none;fill-rule:nonzero;stroke:#eae1d1;stroke-width:10px;"/></g></svg>